<svg width="81" height="78" viewBox="0 0 81 78" fill="none" xmlns="http://www.w3.org/2000/svg">
<path fill-rule="evenodd" clip-rule="evenodd" d="M31.6052 7.66936C42.0868 6.62082 52.2173 -2.83449 61.4948 2.13926C71.7514 7.63793 78.9033 20.5033 76.8617 31.9318C74.9117 42.8471 60.7384 45.3139 52.4593 52.7182C45.0509 59.3437 41.4433 70.9008 31.6052 72.4061C21.0144 74.0264 9.51537 68.8756 3.18809 60.2566C-2.63287 52.3273 1.15256 41.7294 1.89272 31.9318C2.5432 23.3212 0.466586 13.0461 7.16799 7.57392C13.7186 2.22491 23.1794 8.51225 31.6052 7.66936Z" fill="#F1E7FF"/>
<rect x="3.55252" y="2.82313" width="53.4128" height="53.5107" rx="4.75068" fill="#FBF8FF"/>
<rect x="3.55252" y="2.82313" width="53.4128" height="53.5107" rx="4.75068" stroke="#E3D0FF" stroke-width="0.473684"/>
<path d="M14.2681 22.3681L17.0652 33.3703H40.1886L41.121 18.2655L14.2681 22.3681Z" fill="#F1E7FF"/>
<path d="M49.8263 11.252C49.9995 11.692 49.7751 12.1913 49.3274 12.3616L43.2734 14.665C43.1096 14.7273 42.9378 14.7373 42.7772 14.7034C42.4989 14.6446 42.2543 14.4536 42.1444 14.1746L42.1139 14.0974L42.1113 14.0906C41.9381 13.6507 42.1625 13.1513 42.6102 12.981L42.874 12.8806L45.128 12.023L45.1282 12.0229L48.6642 10.6776C49.1119 10.5073 49.6199 10.7279 49.7931 11.1679L49.8263 11.252Z" fill="#230051"/>
<path d="M40.0756 38.8649L39.7364 35.6126L39.5985 34.2909V34.2907V34.2906L39.5509 33.8342H17.2227C17.2015 33.8442 17.1792 33.8524 17.1558 33.8583C17.0664 33.8812 16.9736 33.8699 16.8893 33.8342C16.7461 33.774 16.6267 33.6441 16.5879 33.493L16.4579 32.9885L15.8127 30.4835L15.5982 29.6508L14.7257 26.2634L14.5182 25.4575L13.8699 22.9404C13.7894 22.8775 13.7312 22.7857 13.7131 22.6778C13.7093 22.6546 13.7073 22.6314 13.7073 22.6086C13.7073 22.4058 13.8552 22.2256 14.0622 22.1912L40.9275 17.7412C41.1941 16.3308 41.5724 15.076 42.1354 13.9766L42.1658 14.0548C42.2756 14.3373 42.5199 14.5306 42.798 14.5901C42.2957 15.5435 41.9496 16.6275 41.7027 17.8464V17.8465C41.6624 18.0456 41.6247 18.2484 41.5894 18.4547C41.3757 19.7043 41.2499 21.0863 41.1574 22.6049C41.1402 22.8854 41.1242 23.1706 41.1091 23.4604C41.0375 24.8236 40.9833 26.2905 40.9103 27.8633C40.8974 28.1435 40.8837 28.427 40.8692 28.7141C40.8016 30.0636 40.7162 31.4878 40.592 32.9885C40.5688 33.2678 40.5444 33.5497 40.5185 33.8342C40.5012 34.0241 40.4832 34.2151 40.4644 34.4074V34.4075L40.9293 38.8649L40.9689 39.2442C40.9693 39.2478 40.9697 39.2515 40.9699 39.2552C40.9707 39.2662 40.9711 39.2772 40.9711 39.288C40.971 39.5013 40.8079 39.6859 40.5905 39.7085C40.5758 39.71 40.5612 39.7107 40.5468 39.7107H38.4829H36.0704H20.9916H18.5791H17.8498C17.6346 39.7107 17.4585 39.5204 17.4585 39.2878C17.4585 39.1715 17.5025 39.0658 17.5734 38.9891C17.6444 38.9125 17.7423 38.8649 17.8498 38.8649H40.0756V38.8649ZM40.7776 18.6234L37.5177 19.1634L37.3846 23.0056L40.372 22.6883C40.4677 21.2226 40.5882 19.8676 40.7776 18.6234ZM40.3194 23.5444L37.355 23.8594L37.2073 28.1248L40.0879 27.9214C40.1736 26.3713 40.2397 24.9124 40.3194 23.5444ZM40.0394 28.7727L37.1779 28.9748L37.0388 32.9885H39.4628H39.7271C39.7988 32.2116 39.8597 31.453 39.913 30.7125C39.9606 30.0514 40.0021 29.4047 40.0394 28.7727ZM36.476 23.1023L36.6072 19.3142L34.3515 19.6878V23.328L36.476 23.1023ZM36.2998 28.189L36.4464 23.9559L34.3515 24.1784V28.3264L36.2998 28.189ZM36.1335 32.9885L36.2703 29.0388L34.3515 29.1743V32.9885H36.1335ZM33.4467 32.9885V29.2383L31.3871 29.3836V32.9885H33.4467ZM33.4467 28.3904V24.2746L31.3871 24.4934V28.5358L33.4467 28.3904ZM33.4467 23.4241V19.8377L31.3871 20.1789V23.6429L33.4467 23.4241ZM30.4823 32.9885V29.4475L28.546 29.5843L28.7561 32.9885H30.4823ZM30.4823 28.5997V24.5895L28.2525 24.8264L28.4939 28.7401L30.4823 28.5997ZM30.4823 23.739V20.3287L28.0005 20.7398L28.2005 23.9815L30.4823 23.739ZM27.8496 32.9885L27.6435 29.648L25.6989 29.7854L26.0212 32.9885H27.8496ZM27.5914 28.8039L27.3519 24.9221L25.2321 25.1474L25.6142 28.9435L27.5914 28.8039ZM27.2998 24.0772L27.1031 20.8884L24.8413 21.2631L25.1475 24.3058L27.2998 24.0772ZM25.1119 32.9885L24.796 29.8491L22.9078 29.9825L23.3097 32.9413C23.3118 32.9571 23.3131 32.9729 23.3135 32.9885H25.1119ZM24.7113 29.0072L24.3324 25.243L22.2936 25.4596L22.7939 29.1427L24.7113 29.0072ZM24.2476 24.4014L23.9467 21.4113L21.7923 21.7682L22.1798 24.6211L24.2476 24.4014ZM22.403 32.9885L22.0034 30.0464L19.9667 30.1901L20.4767 32.9635C20.4783 32.9719 20.4796 32.9802 20.4805 32.9885H22.403ZM21.8894 29.2065L21.3935 25.5552L19.158 25.7928L19.8128 29.3531L21.8894 29.2065ZM21.2797 24.7167L20.8993 21.916L18.5177 22.3105L19.0047 24.9585L21.2797 24.7167ZM19.5615 32.9885L19.0586 30.2543L16.7301 30.4187L17.3919 32.9885H19.5615V32.9885ZM18.9047 29.4172L18.2558 25.8886L15.635 26.167L16.5155 29.586L18.9047 29.4172ZM18.1024 25.0543L17.6251 22.4584L14.8003 22.9264L15.4217 25.3392L18.1024 25.0543Z" fill="#9C6ADE"/>
<path d="M38.5577 40.8296C39.8737 40.8559 40.9324 41.9312 40.9324 43.2535C40.9324 44.5926 39.8471 45.678 38.5082 45.678C37.1693 45.678 36.084 44.5926 36.084 43.2535C36.084 42.6147 36.331 42.0335 36.7352 41.6003L37.2555 42.5967V42.5969C37.1522 42.7931 37.0939 43.0165 37.0939 43.2535C37.0939 44.0348 37.7271 44.668 38.5082 44.668C39.2893 44.668 39.9225 44.0348 39.9225 43.2535C39.9225 42.6121 39.4954 42.0702 38.9099 41.8969L38.5577 40.8296Z" fill="#230051"/>
<path d="M39.3791 42.7205C39.5461 43.1206 39.3613 43.5822 38.9666 43.7513C38.5719 43.9205 38.1167 43.7332 37.9498 43.3331L37.4632 42.3885V42.3883L36.9642 41.4198L36.084 39.7111H38.3996L38.7119 40.6707L39.0497 41.7081L39.3791 42.7205Z" fill="#D0D2C7"/>
<path d="M21.4005 40.8296C22.7165 40.8559 23.7752 41.9312 23.7752 43.2535C23.7752 44.5926 22.6899 45.678 21.351 45.678C20.0121 45.678 18.9268 44.5926 18.9268 43.2535C18.9268 42.6147 19.1738 42.0335 19.5779 41.6003L20.0982 42.5967V42.5969C19.995 42.7931 19.9367 43.0165 19.9367 43.2535C19.9367 44.0348 20.5699 44.668 21.351 44.668C22.1321 44.668 22.7653 44.0348 22.7653 43.2535C22.7653 42.6121 22.3381 42.0702 21.7527 41.8969L21.4005 40.8296Z" fill="#230051"/>
<path d="M22.2162 42.7205C22.4017 43.1206 22.1964 43.5822 21.7578 43.7513C21.3193 43.9205 20.8135 43.7332 20.6281 43.3331L20.0874 42.3885V42.3883L19.533 41.4198L18.5549 39.7111H21.1279L21.4748 40.6707L21.8502 41.7081L22.2162 42.7205Z" fill="#D0D2C7"/>
<circle cx="60.1577" cy="58.966" r="18" fill="#BF0711"/>
<path d="M66.8379 60.7315L60.7015 66.8678C60.4714 67.0979 60.1646 67.213 59.8578 67.213C59.5126 67.213 59.2058 67.0979 58.9757 66.8678L52.8393 60.7315C52.3407 60.2712 52.3407 59.4658 52.8393 59.0056C53.2995 58.507 54.1049 58.507 54.5652 59.0056L58.6305 63.0326L58.6305 51.2585C58.6305 50.6065 59.1674 50.0695 59.8194 50.0695C60.4331 50.0695 61.085 50.6065 61.085 51.2585L61.085 63.0326L65.112 59.0056C65.5723 58.507 66.3777 58.507 66.8379 59.0056C67.3365 59.4658 67.3365 60.2712 66.8379 60.7315Z" fill="white"/>
</svg>
