<svg width="81" height="77" viewBox="0 0 81 77" fill="none" xmlns="http://www.w3.org/2000/svg">
<path fill-rule="evenodd" clip-rule="evenodd" d="M31.6052 7.22976C42.0868 6.18121 52.2173 -3.2741 61.4948 1.69965C71.7514 7.19832 78.9033 20.0637 76.8617 31.4922C74.9117 42.4075 60.7384 44.8743 52.4593 52.2785C45.0509 58.9041 41.4433 70.4612 31.6052 71.9665C21.0144 73.5868 9.51537 68.436 3.18809 59.817C-2.63287 51.8877 1.15256 41.2898 1.89272 31.4922C2.5432 22.8816 0.466586 12.6065 7.16799 7.13431C13.7186 1.7853 23.1794 8.07264 31.6052 7.22976Z" fill="#F1E7FF"/>
<rect x="3.55252" y="2.38357" width="53.4128" height="53.5107" rx="4.75068" fill="#FBF8FF"/>
<rect x="3.55252" y="2.38357" width="53.4128" height="53.5107" rx="4.75068" stroke="#E3D0FF" stroke-width="0.473684"/>
<path d="M14.2681 21.9285L17.0652 32.9307H40.1886L41.121 17.8259L14.2681 21.9285Z" fill="#F1E7FF"/>
<path d="M49.8263 10.8124C49.9995 11.2524 49.7751 11.7518 49.3274 11.922L43.2734 14.2254C43.1096 14.2877 42.9378 14.2978 42.7772 14.2638C42.4989 14.205 42.2543 14.0141 42.1444 13.7351L42.1139 13.6578L42.1113 13.6511C41.9381 13.2112 42.1625 12.7117 42.6102 12.5414L42.874 12.441L45.128 11.5835L45.1282 11.5833L48.6642 10.238C49.1119 10.0678 49.6199 10.2884 49.7931 10.7284L49.8263 10.8124Z" fill="#230051"/>
<path d="M40.0756 38.4254L39.7364 35.173L39.5985 33.8513V33.8512V33.851L39.5509 33.3946H17.2227C17.2015 33.4046 17.1792 33.4128 17.1558 33.4187C17.0664 33.4416 16.9736 33.4303 16.8893 33.3946C16.7461 33.3345 16.6267 33.2045 16.5879 33.0535L16.4579 32.5489L15.8127 30.0439L15.5982 29.2112L14.7257 25.8238L14.5182 25.0179L13.8699 22.5009C13.7894 22.4379 13.7312 22.3462 13.7131 22.2382C13.7093 22.215 13.7073 22.1918 13.7073 22.169C13.7073 21.9663 13.8552 21.786 14.0622 21.7516L40.9275 17.3016C41.1941 15.8912 41.5724 14.6364 42.1354 13.537L42.1658 13.6153C42.2756 13.8977 42.5199 14.091 42.798 14.1505C42.2957 15.104 41.9496 16.1879 41.7027 17.4068V17.4069C41.6624 17.606 41.6247 17.8088 41.5894 18.0151C41.3757 19.2647 41.2499 20.6468 41.1574 22.1654C41.1402 22.4458 41.1242 22.731 41.1091 23.0208C41.0375 24.3841 40.9833 25.8509 40.9103 27.4238C40.8974 27.704 40.8837 27.9875 40.8692 28.2745C40.8016 29.624 40.7162 31.0482 40.592 32.5489C40.5688 32.8282 40.5444 33.1101 40.5185 33.3946C40.5012 33.5845 40.4832 33.7756 40.4644 33.9678V33.9679L40.9293 38.4254L40.9689 38.8046C40.9693 38.8083 40.9697 38.812 40.9699 38.8156C40.9707 38.8266 40.9711 38.8376 40.9711 38.8484C40.971 39.0617 40.8079 39.2464 40.5905 39.2689C40.5758 39.2705 40.5612 39.2711 40.5468 39.2711H38.4829H36.0704H20.9916H18.5791H17.8498C17.6346 39.2711 17.4585 39.0808 17.4585 38.8482C17.4585 38.7319 17.5025 38.6262 17.5734 38.5495C17.6444 38.4729 17.7423 38.4254 17.8498 38.4254H40.0756V38.4254ZM40.7776 18.1838L37.5177 18.7238L37.3846 22.5661L40.372 22.2487C40.4677 20.7831 40.5882 19.428 40.7776 18.1838ZM40.3194 23.1049L37.355 23.4198L37.2073 27.6853L40.0879 27.4818C40.1736 25.9318 40.2397 24.4728 40.3194 23.1049ZM40.0394 28.3331L37.1779 28.5352L37.0388 32.5489H39.4628H39.7271C39.7988 31.772 39.8597 31.0134 39.913 30.2729C39.9606 29.6118 40.0021 28.9651 40.0394 28.3331ZM36.476 22.6627L36.6072 18.8746L34.3515 19.2483V22.8884L36.476 22.6627ZM36.2998 27.7494L36.4464 23.5163L34.3515 23.7389V27.8869L36.2998 27.7494ZM36.1335 32.5489L36.2703 28.5992L34.3515 28.7347V32.5489H36.1335ZM33.4467 32.5489V28.7987L31.3871 28.9441V32.5489H33.4467ZM33.4467 27.9508V23.835L31.3871 24.0538V28.0962L33.4467 27.9508ZM33.4467 22.9845V19.3981L31.3871 19.7393V23.2034L33.4467 22.9845ZM30.4823 32.5489V29.0079L28.546 29.1447L28.7561 32.5489H30.4823ZM30.4823 28.1601V24.15L28.2525 24.3868L28.4939 28.3006L30.4823 28.1601ZM30.4823 23.2995V19.8891L28.0005 20.3002L28.2005 23.5419L30.4823 23.2995ZM27.8496 32.5489L27.6435 29.2085L25.6989 29.3458L26.0212 32.5489H27.8496ZM27.5914 28.3643L27.3519 24.4826L25.2321 24.7079L25.6142 28.5039L27.5914 28.3643ZM27.2998 23.6376L27.1031 20.4489L24.8413 20.8235L25.1475 23.8662L27.2998 23.6376ZM25.1119 32.5489L24.796 29.4095L22.9078 29.5429L23.3097 32.5018C23.3118 32.5176 23.3131 32.5334 23.3135 32.5489H25.1119ZM24.7113 28.5676L24.3324 24.8034L22.2936 25.02L22.7939 28.7031L24.7113 28.5676ZM24.2476 23.9618L23.9467 20.9717L21.7923 21.3286L22.1798 24.1816L24.2476 23.9618ZM22.403 32.5489L22.0034 29.6068L19.9667 29.7506L20.4767 32.5239C20.4783 32.5323 20.4796 32.5406 20.4805 32.5489H22.403ZM21.8894 28.767L21.3935 25.1157L19.158 25.3532L19.8128 28.9135L21.8894 28.767ZM21.2797 24.2771L20.8993 21.4764L18.5177 21.8709L19.0047 24.5189L21.2797 24.2771ZM19.5615 32.5489L19.0586 29.8147L16.7301 29.9792L17.3919 32.5489H19.5615V32.5489ZM18.9047 28.9776L18.2558 25.449L15.635 25.7274L16.5155 29.1464L18.9047 28.9776ZM18.1024 24.6148L17.6251 22.0188L14.8003 22.4868L15.4217 24.8996L18.1024 24.6148Z" fill="#9C6ADE"/>
<path d="M38.5577 40.39C39.8737 40.4164 40.9324 41.4916 40.9324 42.814C40.9324 44.153 39.8471 45.2385 38.5082 45.2385C37.1693 45.2385 36.084 44.153 36.084 42.814C36.084 42.1752 36.331 41.5939 36.7352 41.1608L37.2555 42.1572V42.1573C37.1522 42.3536 37.0939 42.5769 37.0939 42.814C37.0939 43.5952 37.7271 44.2284 38.5082 44.2284C39.2893 44.2284 39.9225 43.5952 39.9225 42.814C39.9225 42.1725 39.4954 41.6306 38.9099 41.4573L38.5577 40.39Z" fill="#230051"/>
<path d="M39.3791 42.2809C39.5461 42.681 39.3613 43.1426 38.9666 43.3117C38.5719 43.4809 38.1167 43.2936 37.9498 42.8936L37.4632 41.9489V41.9487L36.9642 40.9803L36.084 39.2715H38.3996L38.7119 40.2311L39.0497 41.2685L39.3791 42.2809Z" fill="#D0D2C7"/>
<path d="M21.4005 40.39C22.7165 40.4164 23.7752 41.4916 23.7752 42.814C23.7752 44.153 22.6899 45.2385 21.351 45.2385C20.0121 45.2385 18.9268 44.153 18.9268 42.814C18.9268 42.1752 19.1738 41.5939 19.5779 41.1608L20.0982 42.1572V42.1573C19.995 42.3536 19.9367 42.5769 19.9367 42.814C19.9367 43.5952 20.5699 44.2284 21.351 44.2284C22.1321 44.2284 22.7653 43.5952 22.7653 42.814C22.7653 42.1725 22.3381 41.6306 21.7527 41.4573L21.4005 40.39Z" fill="#230051"/>
<path d="M22.2162 42.2809C22.4017 42.681 22.1964 43.1426 21.7578 43.3117C21.3193 43.4809 20.8135 43.2936 20.6281 42.8936L20.0874 41.9489V41.9487L19.533 40.9803L18.5549 39.2715H21.1279L21.4748 40.2311L21.8502 41.2685L22.2162 42.2809Z" fill="#D0D2C7"/>
<circle cx="60.1577" cy="58.5263" r="18" transform="rotate(-180 60.1577 58.5263)" fill="#23DC9B"/>
<path d="M53.4775 56.7608L59.6139 50.6244C59.844 50.3943 60.1508 50.2793 60.4577 50.2793C60.8028 50.2793 61.1096 50.3943 61.3398 50.6244L67.4761 56.7608C67.9747 57.221 67.9747 58.0264 67.4761 58.4866C67.0159 58.9852 66.2105 58.9852 65.7503 58.4866L61.6849 54.4597L61.6849 66.2338C61.6849 66.8858 61.148 67.4227 60.496 67.4227C59.8824 67.4227 59.2304 66.8858 59.2304 66.2338L59.2304 54.4597L55.2034 58.4866C54.7432 58.9852 53.9378 58.9852 53.4775 58.4866C52.979 58.0264 52.979 57.221 53.4775 56.7608Z" fill="white"/>
</svg>
